<svg xmlns="http://www.w3.org/2000/svg" width="29" height="28" viewBox="0 0 29 28" fill="none">
  <g clip-path="url(#clip0_506_355)">
    <path d="M8.3025 3.17048C7.42708 2.68662 6.39924 2.69781 5.52942 3.17747L15.7239 12.5819L19.1487 9.15714L8.3025 3.17048Z" fill="white"/>
    <path d="M4.50997 4.13928C4.26105 4.54622 4.11841 5.0119 4.11841 5.50555V22.4908C4.11841 22.9691 4.24846 23.425 4.4834 23.8235L14.7353 13.5717L4.50997 4.13928Z" fill="white"/>
    <path d="M23.6894 11.6629L20.4227 9.86035L16.7518 13.5298L21.2506 17.679L23.6908 16.3323C24.569 15.8456 25.0948 14.973 25.0948 13.9969C25.0934 13.0208 24.569 12.1482 23.6894 11.6629Z" fill="white"/>
    <path d="M15.763 14.5198L5.48315 24.7996C5.92925 25.0541 6.4187 25.1884 6.91095 25.1884C7.38641 25.1884 7.86468 25.0681 8.30238 24.8262L19.9611 18.392L15.763 14.5198Z" fill="white"/>
  </g>
  <defs>
    <clipPath id="clip0_506_355">
      <rect width="27.9685" height="27.9685" fill="white" transform="translate(0.622314 0.0157471)"/>
    </clipPath>
  </defs>
</svg>