<svg xmlns="http://www.w3.org/2000/svg" width="28" height="28" viewBox="0 0 28 28" fill="none">
  <g clip-path="url(#clip0_533_954)">
    <path d="M7.68018 3.17048C6.80477 2.68662 5.77693 2.69781 4.9071 3.17747L15.1016 12.5819L18.5264 9.15714L7.68018 3.17048Z" fill="#3F50BB"/>
    <path d="M3.88765 4.13928C3.63873 4.54622 3.49609 5.0119 3.49609 5.50555V22.4908C3.49609 22.9691 3.62615 23.425 3.86108 23.8235L14.113 13.5717L3.88765 4.13928Z" fill="#3F50BB"/>
    <path d="M23.0671 11.6629L19.8004 9.86035L16.1295 13.5298L20.6283 17.679L23.0685 16.3323C23.9467 15.8456 24.4725 14.973 24.4725 13.9969C24.4711 13.0208 23.9467 12.1482 23.0671 11.6629Z" fill="#3F50BB"/>
    <path d="M15.1407 14.5198L4.86084 24.7996C5.30694 25.0541 5.79639 25.1884 6.28863 25.1884C6.7641 25.1884 7.24236 25.0681 7.68007 24.8262L19.3388 18.392L15.1407 14.5198Z" fill="#3F50BB"/>
  </g>
  <defs>
    <clipPath id="clip0_533_954">
      <rect width="27.9685" height="27.9685" fill="white" transform="translate(0 0.0157471)"/>
    </clipPath>
  </defs>
</svg>