<svg xmlns="http://www.w3.org/2000/svg" width="29" height="28" viewBox="0 0 29 28" fill="none">
  <g clip-path="url(#clip0_533_940)">
    <path d="M18.9654 1.72107C17.6561 1.81163 16.1259 2.64966 15.2341 3.74095C14.4206 4.73094 13.7514 6.20134 14.0124 7.63029C15.4429 7.6748 16.9209 6.81682 17.7774 5.70711C18.5786 4.67415 19.1848 3.21296 18.9654 1.72107Z" fill="#3F50BB"/>
    <path d="M24.1395 9.9602C22.8825 8.3839 21.1159 7.46912 19.4475 7.46912C17.2449 7.46912 16.3133 8.52357 14.783 8.52357C13.2052 8.52357 12.0064 7.47219 10.1017 7.47219C8.23068 7.47219 6.23843 8.61566 4.97524 10.5711C3.1994 13.3246 3.5033 18.5017 6.38117 22.9114C7.41106 24.4892 8.7863 26.2635 10.5852 26.2789C12.186 26.2942 12.6373 25.252 14.806 25.2413C16.9748 25.229 17.3861 26.2927 18.9839 26.2758C20.7843 26.262 22.2348 24.2958 23.2647 22.718C24.0029 21.5868 24.2777 21.0174 24.8502 19.7403C20.6861 18.1548 20.0184 12.2333 24.1395 9.9602Z" fill="#3F50BB"/>
  </g>
  <defs>
    <clipPath id="clip0_533_940">
      <rect width="27.9685" height="27.9685" fill="white" transform="translate(0.377686 0.0157471)"/>
    </clipPath>
  </defs>
</svg>