<svg xmlns="http://www.w3.org/2000/svg" width="28" height="28" viewBox="0 0 28 28" fill="none">
<g clip-path="url(#clip0_506_341)">
<path d="M18.5877 1.72107C17.2784 1.81163 15.7482 2.64966 14.8564 3.74095C14.043 4.73094 13.3738 6.20134 13.6347 7.63029C15.0652 7.6748 16.5432 6.81682 17.3997 5.70711C18.2009 4.67415 18.8072 3.21296 18.5877 1.72107Z" fill="white"/>
<path d="M23.7619 9.9602C22.5048 8.3839 20.7382 7.46912 19.0698 7.46912C16.8672 7.46912 15.9356 8.52357 14.4053 8.52357C12.8275 8.52357 11.6288 7.47219 9.72399 7.47219C7.85299 7.47219 5.86074 8.61566 4.59755 10.5711C2.82171 13.3246 3.12562 18.5017 6.00348 22.9114C7.03338 24.4892 8.40862 26.2635 10.2075 26.2789C11.8083 26.2942 12.2596 25.252 14.4284 25.2413C16.5971 25.229 17.0085 26.2927 18.6062 26.2758C20.4066 26.262 21.8571 24.2958 22.887 22.718C23.6253 21.5868 23.9 21.0174 24.4725 19.7403C20.3084 18.1548 19.6407 12.2333 23.7619 9.9602Z" fill="white"/>
</g>
<defs>
<clipPath id="clip0_506_341">
<rect width="27.9685" height="27.9685" fill="white" transform="translate(0 0.0157471)"/>
</clipPath>
</defs>
</svg>