<svg xmlns="http://www.w3.org/2000/svg" width="131" height="79" viewBox="0 0 131 79" fill="none">
<g clip-path="url(#clip0_561_42)">
<path d="M11.3535 14.971C12.1412 16.513 13.214 17.8901 13.859 19.5146C19.2463 33.9008 29.9765 43.2004 42.7822 50.1588C47.1902 52.5561 52.6055 53.8955 57.703 54.1821C72.2312 55.1986 86.3457 52.8399 99.6585 46.7597C103.499 45.015 107.072 42.4733 110.319 39.3598C108.963 39.4778 107.495 39.5655 106.109 39.7962C102.094 40.4057 98.0482 41.1279 93.9814 41.4818C92.2589 41.6217 90.3517 41.1074 88.5871 40.5107C87.914 40.3292 87.1778 39.0428 87.2479 38.3365C87.318 37.6302 88.3253 36.5722 88.9166 36.6107C99.2425 36.2523 109.064 32.8568 119.008 30.3408C122.493 29.4674 124.279 30.4323 124.805 33.8377C126.022 42.2647 125.324 50.6583 122.881 58.8235C122.82 59.0489 122.281 59.2659 121.425 59.7605C115.475 55.4968 119.438 48.8297 117.735 42.2056C116.585 43.3461 115.72 44.3216 114.804 45.0416C95.9587 58.6956 74.732 62.8836 52.0563 60.3955C48.6509 60.0816 45.1217 58.8882 41.908 57.4173C30.1448 51.9488 20.5482 43.8009 13.8006 32.6741C11.6433 29.0706 10.5145 24.7773 9.32483 20.7094C8.79194 19.1152 9.30847 17.1997 9.39728 15.5314C10.0494 15.3446 10.7015 15.1578 11.3535 14.971Z" fill="#3F50BB"/>
</g>
<defs>
<clipPath id="clip0_561_42">
<rect width="120.865" height="47.7965" fill="white" transform="translate(13.3669 0.80957) rotate(15.0906)"/>
</clipPath>
</defs>
</svg>