<svg xmlns="http://www.w3.org/2000/svg" width="156" height="153" viewBox="0 0 156 153" fill="none">
<g clip-path="url(#clip0_561_38)">
<path d="M45.8035 117.369C46.2923 117.873 46.3799 118.134 46.6067 118.29C63.8573 125.236 81.22 125.666 98.3088 117.909C102.629 115.96 106.355 112.934 109.382 109.126C115.942 101.02 116.431 90.0765 110.682 81.4366C107.712 76.9166 104.081 73.1132 98.883 71.1443C96.6536 72.3888 94.4766 73.7027 92.2817 74.7031C88.6932 76.318 84.9807 76.6091 81.3 74.914C78.544 73.721 76.9719 71.6355 77.2479 69.6833C77.6101 67.1209 79.5602 65.6509 81.8433 65.3472C85.0153 64.9184 88.2575 64.8728 91.4128 65.0016C93.4525 65.0994 95.5452 65.7022 97.5332 66.166C104.513 59.0517 102.249 49.0935 92.268 42.663C90.9441 43.2249 89.5504 43.8393 88.1741 44.3318C83.0168 46.039 77.9439 45.8294 73.3372 42.7609C71.5749 41.5821 70.0559 40.0017 70.4705 37.5088C70.7988 35.6261 72.749 34.1561 75.5375 33.7984C79.9644 33.2958 84.1671 34.3794 88.2484 35.8816C89.6613 36.4518 91.0741 37.022 92.4173 37.6448C103.558 27.0669 103.967 9.64295 91.022 2.61251C91.9798 1.99953 92.6935 1.35251 93.321 1.31557C94.0705 1.29565 94.9255 1.85032 95.5364 2.37097C101.105 7.43981 104.548 13.4566 103.636 21.2301C103 27.0514 100.829 32.2854 97.5241 37.1748C97.0545 37.8558 96.5849 38.5369 96.1676 39.2874C96.098 39.3399 96.1331 39.5314 96.1338 39.967C96.675 40.5401 97.2515 41.3048 97.9672 41.9645C106.451 50.1771 107.612 56.9332 102.155 67.8057C103.062 68.4299 104.075 69.1931 105.104 69.8343C110.95 73.822 115.124 79.0698 117.4 85.857C121.13 96.8905 117.835 108.313 108.696 116.184C103.734 120.469 98.0382 123.345 91.748 125.143C76.5191 129.428 61.5967 128.903 47.0484 122.209C46.281 121.915 45.5308 121.499 44.7634 121.206C44.6413 121.189 44.4496 121.224 43.8745 121.331C45.099 124.114 46.9848 126.181 48.8009 128.301C50.4949 130.403 52.3807 132.47 54.3016 134.729C52.3336 135.885 50.9035 135.437 49.5948 134.57C48.1289 133.495 46.5237 132.525 45.406 131.187C42.4371 127.538 39.4854 123.767 36.8123 119.786C34.768 116.639 35.7411 114.598 39.1744 114.081C46.4768 113.046 53.8315 112.081 61.1863 111.116C62.3888 110.972 63.5569 111.073 65.1084 111.102C64.5718 113.578 63.0382 113.862 61.6267 114.163C56.3985 115.052 51.3275 116.149 45.8035 117.369ZM74.1319 38.0193C78.3744 42.3434 83.6921 43.0226 88.1675 39.9761C83.6676 38.3534 79.4815 36.7122 74.1319 38.0193ZM81.048 69.6532C85.1147 73.0196 89.3678 72.8661 93.3019 69.2465C89.082 68.2849 85.2633 67.5658 81.048 69.6532Z" fill="#3F50BB"/>
</g>
<defs>
<clipPath id="clip0_561_38">
<rect width="101.422" height="118.325" fill="white" transform="translate(94.4878) rotate(52.9912)"/>
</clipPath>
</defs>
</svg>