<svg xmlns="http://www.w3.org/2000/svg" width="115" height="55" viewBox="0 0 115 55" fill="none">
<g clip-path="url(#clip0_642_850)">
<path d="M0 47.9503C0.240284 45.9107 0.120142 43.8711 0.60071 41.9515C1.32156 39.1921 2.2827 36.4326 3.7244 33.9131C12.4948 18.3163 25.2298 6.79863 42.4101 1.9996C59.9508 -2.79943 76.5304 1.03978 90.3467 13.5173C97.315 19.756 102.601 27.3145 106.686 35.7128C107.407 37.2725 108.128 38.7122 109.449 41.2317C111.011 37.7524 112.213 35.1129 113.414 32.3535C113.774 32.4734 114.135 32.4734 114.615 32.5934C114.736 33.4333 115.096 34.2731 114.976 35.1129C114.615 39.312 114.135 43.5112 113.654 47.7104C113.294 50.4698 113.054 53.3492 110.05 54.549C106.926 55.8687 104.283 54.0691 102.241 52.0295C99.4775 49.1501 96.9545 45.9107 94.5517 42.6714C94.0711 41.9515 94.5517 40.6318 94.5517 39.552C95.633 39.552 96.9545 39.1921 97.6754 39.672C99.8379 41.2317 101.64 43.1513 103.682 45.0709C103.803 44.711 104.043 44.471 103.923 44.351C94.5517 17.9564 75.329 2.23955 47.9366 4.99899C46.6151 5.11897 45.2935 5.35892 43.9719 5.83882C25.5902 11.7176 12.0142 23.1153 3.7244 40.6318C2.64312 42.9113 2.16255 45.5508 1.4417 48.0703C0.961134 48.0703 0.480568 47.9503 0 47.9503Z" fill="#3F50BB"/>
</g>
<defs>
<clipPath id="clip0_642_850">
<rect width="115" height="55" fill="white"/>
</clipPath>
</defs>
</svg>