<svg xmlns="http://www.w3.org/2000/svg" width="32" height="32" viewBox="0 0 32 32" fill="none">
  <path fill-rule="evenodd" clip-rule="evenodd" d="M11.0759 0.00012207C5.00901 0.00012207 0.0908203 4.91831 0.0908203 10.9852L0.202864 12.0843C0.678034 16.7483 4.3246 20.4588 8.97961 21.015H0.0908839C0.0908839 27.0819 5.00907 32.0001 11.076 32.0001H20.0899C26.1568 32.0001 31.075 27.0819 31.075 21.015H20.1803V21.015H31.075L30.8762 19.7255C30.1837 15.2348 26.673 11.7037 22.1865 10.9852H31.0749C31.0749 4.91831 26.1568 0.00012207 20.0899 0.00012207H11.0759ZM17.0941 21.015H20.1803V10.9852H10.1505V21.015H8.97961L8.97977 21.015H10.1505V24.836L13.2367 21.015H17.0941L20.1803 24.836V21.015H17.0941L17.0941 21.015ZM17.0941 21.015H13.2367L15.1654 18.627L17.0941 21.015ZM13.2367 21.015H10.1505V21.015H13.2367L13.2367 21.015ZM22.1865 10.9852H0.0908203L0.0908839 10.9851H22.1861L22.1865 10.9852Z" fill="#03FE86"/>
</svg>